<?xml version="1.0" ?><!DOCTYPE svg  PUBLIC '-//W3C//DTD SVG 1.1//EN'  'http://www.w3.org/Graphics/SVG/1.1/DTD/svg11.dtd'><svg height="512px" style="enable-background:new 0 0 512 512;" version="1.1" viewBox="0 0 512 512" width="512px" xml:space="preserve" xmlns="http://www.w3.org/2000/svg" xmlns:xlink="http://www.w3.org/1999/xlink"><g id="_x35_92_x2C__Blueprint_x2C__design_x2C__drawing_x2C__plan_x2C__prototype"><g><path d="M485.999,92.225h-22.484h-0.115H52.163V387.6v0.115v18.746h433.836V92.225z     M460.422,115.554H254.54v267.548h205.882V115.554z M250.978,108.371h213.034c1.956,0,3.563,1.605,3.563,3.592v274.73    c0,1.986-1.606,3.592-3.563,3.592H250.978c-1.985,0-3.592-1.605-3.592-3.592v-274.73    C247.386,109.977,248.993,108.371,250.978,108.371z M69.273,108.371h160.244c1.985,0,3.59,1.605,3.59,3.592v40.527    c0,1.985-1.605,3.592-3.59,3.592H69.273c-1.984,0-3.59-1.606-3.59-3.592v-40.527C65.683,109.977,67.289,108.371,69.273,108.371z     M225.925,115.554H72.866v33.374h153.06V115.554z M69.273,170.39h35.185c1.986,0,3.592,1.635,3.592,3.591v51.857    c0,1.986-1.605,3.592-3.592,3.592H69.273c-1.984,0-3.59-1.605-3.59-3.592V173.98C65.683,172.024,67.289,170.39,69.273,170.39z     M100.868,177.572H72.866v44.674h28.002V177.572z M122.913,186.683c-1.986,0-3.592-1.606-3.592-3.593    c0-1.955,1.605-3.59,3.592-3.59h90.633c1.985,0,3.59,1.635,3.59,3.59c0,1.986-1.605,3.593-3.59,3.593H122.913z M122.913,203.501    c-1.986,0-3.592-1.606-3.592-3.592c0-1.956,1.605-3.591,3.592-3.591h90.633c1.985,0,3.59,1.635,3.59,3.591    c0,1.985-1.605,3.592-3.59,3.592H122.913z M122.913,220.319c-1.986,0-3.592-1.605-3.592-3.591c0-1.957,1.605-3.592,3.592-3.592    h90.633c1.985,0,3.59,1.635,3.59,3.592c0,1.985-1.605,3.591-3.59,3.591H122.913z M69.273,288.849h17.579    c1.985,0,3.59,1.606,3.59,3.592v25.929c0,1.956-1.605,3.591-3.59,3.591H69.273c-1.984,0-3.59-1.635-3.59-3.591V292.44    C65.683,290.455,67.289,288.849,69.273,288.849z M83.289,296.031H72.866v18.746h10.423V296.031z M96.079,302.368    c-1.957,0-3.562-1.606-3.562-3.593c0-1.955,1.605-3.562,3.562-3.562h45.316c1.985,0,3.59,1.606,3.59,3.562    c0,1.986-1.605,3.593-3.59,3.593H96.079z M96.079,315.594c-1.957,0-3.562-1.634-3.562-3.59c0-1.986,1.605-3.592,3.562-3.592    h45.316c1.985,0,3.59,1.605,3.59,3.592c0,1.956-1.605,3.59-3.59,3.59H96.079z M159.703,288.849h17.607    c1.957,0,3.562,1.606,3.562,3.592v25.929c0,1.956-1.605,3.591-3.562,3.591h-17.607c-1.986,0-3.592-1.635-3.592-3.591V292.44    C156.111,290.455,157.716,288.849,159.703,288.849z M173.718,296.031h-10.423v18.746h10.423V296.031z M186.507,302.368    c-1.957,0-3.563-1.606-3.563-3.593c0-1.955,1.606-3.562,3.563-3.562h45.316c1.986,0,3.592,1.606,3.592,3.562    c0,1.986-1.605,3.593-3.592,3.593H186.507z M186.507,315.594c-1.957,0-3.563-1.634-3.563-3.59c0-1.986,1.606-3.592,3.563-3.592    h45.316c1.986,0,3.592,1.605,3.592,3.592c0,1.956-1.605,3.59-3.592,3.59H186.507z M69.273,341.873h17.579    c1.985,0,3.59,1.607,3.59,3.592v25.929c0,1.985-1.605,3.591-3.59,3.591H69.273c-1.984,0-3.59-1.605-3.59-3.591v-25.929    C65.683,343.48,67.289,341.873,69.273,341.873z M83.289,349.057H72.866v18.746h10.423V349.057z M96.079,355.422    c-1.957,0-3.562-1.635-3.562-3.591c0-1.985,1.605-3.593,3.562-3.593h45.316c1.985,0,3.59,1.607,3.59,3.593    c0,1.956-1.605,3.591-3.59,3.591H96.079z M96.079,368.619c-1.957,0-3.562-1.605-3.562-3.591s1.605-3.591,3.562-3.591h45.316    c1.985,0,3.59,1.605,3.59,3.591s-1.605,3.591-3.59,3.591H96.079z M159.703,341.873h17.607c1.957,0,3.562,1.607,3.562,3.592v25.929    c0,1.985-1.605,3.591-3.562,3.591h-17.607c-1.986,0-3.592-1.605-3.592-3.591v-25.929    C156.111,343.48,157.716,341.873,159.703,341.873z M173.718,349.057h-10.423v18.746h10.423V349.057z M186.507,355.422    c-1.957,0-3.563-1.635-3.563-3.591c0-1.985,1.606-3.593,3.563-3.593h45.316c1.986,0,3.592,1.607,3.592,3.593    c0,1.956-1.605,3.591-3.592,3.591H186.507z M186.507,368.619c-1.957,0-3.563-1.605-3.563-3.591s1.606-3.591,3.563-3.591h45.316    c1.986,0,3.592,1.605,3.592,3.591s-1.605,3.591-3.592,3.591H186.507z M361.087,152.986l37.286-21.548h-37.286V152.986z     M361.087,182.477l84.617-48.878v-2.16H412.68l-51.593,29.812V182.477z M361.087,211.969l84.617-48.879v-21.229l-84.617,48.88    V211.969z M361.087,241.43l84.617-48.85v-21.227l-84.617,48.878V241.43z M361.087,270.921l84.617-48.85v-21.228l-84.617,48.85    V270.921z M361.087,300.411l84.617-48.849v-21.229l-84.617,48.85V300.411z M361.087,329.902l84.617-48.85v-21.229l-84.617,48.85    V329.902z M361.087,359.393l84.617-48.879v-21.197l-84.617,48.85V359.393z M445.704,348.268l-32.789,18.951h32.789V348.268z     M398.607,367.219l47.097-27.214v-21.228l-83.857,48.441H398.607z M353.902,131.438h-84.646v235.78h84.646V131.438z     M265.665,124.285h91.714h0.115h0.088h91.714c1.985,0,3.593,1.605,3.593,3.59V370.81c0,1.956-1.607,3.592-3.593,3.592h-91.714    h-0.088h-0.115h-91.714c-1.986,0-3.592-1.636-3.592-3.592V127.875C262.073,125.891,263.679,124.285,265.665,124.285z     M325.143,138.855c0-1.957,1.605-3.592,3.592-3.592c1.984,0,3.592,1.635,3.592,3.592v5.868h5.868c1.986,0,3.592,1.635,3.592,3.591    c0,1.986-1.605,3.592-3.592,3.592h-5.868v5.869c0,1.986-1.607,3.592-3.592,3.592c-1.986,0-3.592-1.605-3.592-3.592v-5.869h-5.868    c-1.986,0-3.592-1.605-3.592-3.592c0-1.956,1.605-3.591,3.592-3.591h5.868V138.855z M278.338,358.459    c-1.986,0-3.592-1.605-3.592-3.592c0-1.956,1.605-3.563,3.592-3.563h18.92c1.986,0,3.592,1.606,3.592,3.563    c0,1.986-1.605,3.592-3.592,3.592H278.338z M59.931,424.535c-1.957,0-3.562-1.605-3.562-3.591c0-1.956,1.605-3.592,3.562-3.592    H350.02c1.957,0,3.563,1.636,3.563,3.592c0,1.985-1.605,3.591-3.563,3.591H59.931z M229.809,442.229    c-1.984,0-3.592-1.635-3.592-3.592c0-1.984,1.607-3.59,3.592-3.59h200.712c1.986,0,3.592,1.605,3.592,3.59    c0,1.957-1.605,3.592-3.592,3.592H229.809z M451.077,442.229c-1.986,0-3.592-1.635-3.592-3.592c0-1.984,1.605-3.59,3.592-3.59    h25.081c1.986,0,3.592,1.605,3.592,3.59c0,1.957-1.605,3.592-3.592,3.592H451.077z M48.513,441.791c-1.985,0-3.59-1.605-3.59-3.59    c0-1.957,1.605-3.592,3.59-3.592h95.13c1.957,0,3.562,1.635,3.562,3.592c0,1.984-1.605,3.59-3.562,3.59H48.513z M48.573,85.041    h411.264V69.771H26.001v314.267h18.979V88.633C44.981,86.648,46.586,85.041,48.573,85.041z" style="fill-rule:evenodd;clip-rule:evenodd;"/></g></g><g id="Layer_1"/></svg>